<?xml version="1.0" encoding="UTF-8"?>
<!DOCTYPE svg PUBLIC "-//W3C//DTD SVG 1.1//EN" "http://www.w3.org/Graphics/SVG/1.1/DTD/svg11.dtd">
<svg xmlns="http://www.w3.org/2000/svg" version="1.1" width="640px" height="161px" style="shape-rendering:geometricPrecision; text-rendering:geometricPrecision; image-rendering:optimizeQuality; fill-rule:evenodd; clip-rule:evenodd" xmlns:xlink="http://www.w3.org/1999/xlink">
<g><path style="opacity:1" fill="#010101" d="M -0.5,-0.5 C 212.833,-0.5 426.167,-0.5 639.5,-0.5C 639.5,48.8333 639.5,98.1667 639.5,147.5C 637.325,149.574 634.658,150.907 631.5,151.5C 632.376,152.251 633.376,152.751 634.5,153C 631.926,154.289 631.259,156.122 632.5,158.5C 632.5,159.167 632.5,159.833 632.5,160.5C 632.167,160.5 631.833,160.5 631.5,160.5C 629.218,156.909 625.884,155.576 621.5,156.5C 620.18,155.058 618.514,154.392 616.5,154.5C 616.649,155.552 616.483,156.552 616,157.5C 614.167,155.667 612.333,153.833 610.5,152C 611.672,151.581 612.672,150.915 613.5,150C 613,149.833 612.5,149.667 612,149.5C 609.97,150.696 608.47,152.363 607.5,154.5C 605.858,152.919 603.858,152.253 601.5,152.5C 600.368,151.646 599.035,151.646 597.5,152.5C 597.167,152.5 596.833,152.5 596.5,152.5C 594.338,148.636 592.338,148.303 590.5,151.5C 587.468,147.451 584.968,147.785 583,152.5C 582.722,151.584 582.222,150.918 581.5,150.5C 577.538,149.624 573.538,148.958 569.5,148.5C 569.573,146.973 568.906,145.973 567.5,145.5C 567.565,145.062 567.399,144.728 567,144.5C 565.004,144.996 563.337,145.996 562,147.5C 560.98,143.906 558.813,142.906 555.5,144.5C 556.689,145.429 558.022,145.762 559.5,145.5C 559.33,146.822 559.663,147.989 560.5,149C 559.956,149.717 559.289,150.217 558.5,150.5C 557.564,149.026 556.23,148.026 554.5,147.5C 554.67,146.178 554.337,145.011 553.5,144C 551.444,143.689 549.444,143.189 547.5,142.5C 545.997,143.59 545.664,144.757 546.5,146C 544.32,146.419 542.154,146.252 540,145.5C 537.283,146.739 534.449,147.573 531.5,148C 535.863,148.894 540.196,149.894 544.5,151C 542.277,151.652 541.11,153.152 541,155.5C 537.962,153.307 534.796,152.973 531.5,154.5C 529.956,154.297 528.622,153.63 527.5,152.5C 526.833,153.5 526.167,154.5 525.5,155.5C 523.614,154.07 521.947,152.403 520.5,150.5C 521.95,149.15 522.617,147.484 522.5,145.5C 518.5,145.5 516.5,147.5 516.5,151.5C 514.027,151.201 511.86,150.201 510,148.5C 509.235,148.57 508.735,148.903 508.5,149.5C 507.624,149.631 506.957,149.298 506.5,148.5C 508.86,147.135 510.527,145.135 511.5,142.5C 511,141.5 510.5,140.5 510,139.5C 507.511,141.655 505.844,144.322 505,147.5C 502.726,146.189 500.56,146.189 498.5,147.5C 495.468,144.677 492.801,145.01 490.5,148.5C 488.886,146.925 486.886,146.259 484.5,146.5C 486.06,144.871 485.727,143.704 483.5,143C 487.244,142.071 490.744,142.571 494,144.5C 494.167,144 494.333,143.5 494.5,143C 491.597,139.768 489.097,136.268 487,132.5C 486.47,137.696 483.637,140.53 478.5,141C 479.167,141.333 479.833,141.667 480.5,142C 479.663,143.011 479.33,144.178 479.5,145.5C 477.5,145.5 475.5,145.5 473.5,145.5C 473.179,143.952 472.179,143.285 470.5,143.5C 465.491,142.12 464.824,139.953 468.5,137C 466.104,133.575 464.104,133.741 462.5,137.5C 463.167,138.167 463.833,138.833 464.5,139.5C 463.833,139.833 463.167,140.167 462.5,140.5C 462.709,141.086 463.043,141.586 463.5,142C 459.595,142.44 457.428,140.607 457,136.5C 454.957,137.579 453.624,139.246 453,141.5C 452.617,140.944 452.117,140.611 451.5,140.5C 448.102,140.858 444.935,140.192 442,138.5C 439.485,141.077 436.985,141.077 434.5,138.5C 433.692,140.423 433.192,142.423 433,144.5C 431.687,143.427 430.187,142.76 428.5,142.5C 425.479,144.234 422.479,144.901 419.5,144.5C 422.949,145.767 426.449,146.767 430,147.5C 430.484,149.913 430.15,152.246 429,154.5C 428.097,153.299 426.931,152.465 425.5,152C 421.767,151.934 418.267,151.101 415,149.5C 414.79,151.058 414.29,152.391 413.5,153.5C 411.721,151.454 410.054,149.287 408.5,147C 411.124,146.424 411.791,145.09 410.5,143C 408.7,142.764 407.034,143.264 405.5,144.5C 404.209,145.527 404.209,146.527 405.5,147.5C 405.631,148.376 405.298,149.043 404.5,149.5C 402.074,146.083 398.741,144.75 394.5,145.5C 392.956,145.297 391.622,144.63 390.5,143.5C 389.064,147.136 387.397,147.303 385.5,144C 383.731,142.981 382.064,142.814 380.5,143.5C 379.482,142.807 378.482,142.141 377.5,141.5C 374.564,142.406 371.564,143.072 368.5,143.5C 367.766,142.292 367.433,140.959 367.5,139.5C 365.8,139.374 364.3,138.707 363,137.5C 361.103,139.916 359.103,139.916 357,137.5C 356.283,138.044 355.783,138.711 355.5,139.5C 354.163,140.315 353.163,141.482 352.5,143C 350.744,143.202 349.078,143.702 347.5,144.5C 348.5,145.167 349.5,145.833 350.5,146.5C 347.832,147.243 347.166,149.243 348.5,152.5C 344.88,151.548 343.213,149.215 343.5,145.5C 343.173,135.985 343.506,126.652 344.5,117.5C 347.119,117.232 349.619,117.565 352,118.5C 352.464,117.906 352.631,117.239 352.5,116.5C 352.784,114.585 352.451,112.919 351.5,111.5C 351.326,109.139 350.993,106.806 350.5,104.5C 351.27,99.6176 351.604,94.7843 351.5,90C 349.761,76.9392 348.595,63.7725 348,50.5C 348.107,47.4079 346.941,45.0745 344.5,43.5C 344.5,41.1667 344.5,38.8333 344.5,36.5C 345.993,35.6879 346.66,34.3545 346.5,32.5C 346.239,30.0502 345.572,27.7169 344.5,25.5C 346.977,24.12 346.977,23.12 344.5,22.5C 344.5,21.1667 344.5,19.8333 344.5,18.5C 343.209,17.5272 343.209,16.5272 344.5,15.5C 343.051,14.8281 341.718,14.1614 340.5,13.5C 340.662,11.4727 340.495,9.4727 340,7.5C 339.261,8.57425 338.261,9.24092 337,9.5C 335.342,7.53206 333.675,5.53206 332,3.5C 331.187,5.43571 330.687,7.43571 330.5,9.5C 326.328,8.23816 322.328,6.73816 318.5,5C 320.117,7.36953 321.117,10.0362 321.5,13C 321.355,13.772 321.022,14.4387 320.5,15C 318.754,15.4709 317.087,16.1376 315.5,17C 317.208,18.5095 318.874,20.0095 320.5,21.5C 319.018,23.4829 317.351,25.3163 315.5,27C 318.044,28.092 320.711,28.7586 323.5,29C 322.743,30.5122 321.743,31.8455 320.5,33C 321.448,33.4828 322.448,33.6495 323.5,33.5C 324.263,34.2679 325.263,34.7679 326.5,35C 325.007,36.1562 325.174,36.9896 327,37.5C 328.876,35.8769 330.21,36.2102 331,38.5C 332.88,37.0705 334.38,37.4038 335.5,39.5C 334.398,40.1757 333.398,40.8423 332.5,41.5C 329.439,41.4443 327.272,42.7776 326,45.5C 324.43,61.6474 323.93,77.6474 324.5,93.5C 325.231,98.0725 324.231,102.073 321.5,105.5C 321.217,106.216 320.884,107.049 320.5,108C 321.861,109.584 322.528,111.418 322.5,113.5C 321.781,115.764 321.448,118.097 321.5,120.5C 322.93,120.579 324.264,120.246 325.5,119.5C 326.575,117.189 326.575,114.856 325.5,112.5C 326.167,111.833 326.833,111.167 327.5,110.5C 327.679,121.19 327.345,131.857 326.5,142.5C 323.585,147.189 320.085,147.523 316,143.5C 314.383,144.851 313.216,146.518 312.5,148.5C 309.528,146.691 306.861,146.691 304.5,148.5C 304.275,138.801 304.608,129.134 305.5,119.5C 306.5,119.5 307.5,119.5 308.5,119.5C 308.433,118.041 308.766,116.708 309.5,115.5C 308.597,107.542 308.264,99.5417 308.5,91.5C 308.5,91.1667 308.5,90.8333 308.5,90.5C 309.969,84.4989 308.969,78.8322 305.5,73.5C 306.672,71.461 308.338,70.1276 310.5,69.5C 315.775,67.1859 318.108,63.0192 317.5,57C 317.385,54.2682 316.552,51.7682 315,49.5C 312.876,48.3783 311.043,46.8783 309.5,45C 305.5,43 301.5,43 297.5,45C 295.689,46.0407 295.355,47.2073 296.5,48.5C 294.5,49.5 292.5,50.5 290.5,51.5C 288.72,52.9899 288.054,54.9899 288.5,57.5C 287.167,60.1667 287.167,62.8333 288.5,65.5C 289.779,68.1117 291.445,70.4451 293.5,72.5C 290.015,77.5736 288.682,83.2403 289.5,89.5C 289.5,98.5 289.5,107.5 289.5,116.5C 291.761,125.264 292.761,134.264 292.5,143.5C 290.323,143.586 288.323,144.253 286.5,145.5C 285.522,145.023 284.689,144.357 284,143.5C 281.679,146.076 278.845,147.743 275.5,148.5C 275.719,149.675 275.386,150.675 274.5,151.5C 273.109,150.355 271.776,150.355 270.5,151.5C 272.149,152.148 273.482,153.148 274.5,154.5C 274.333,154.833 274.167,155.167 274,155.5C 270.875,152.586 269.709,152.919 270.5,156.5C 270.565,156.938 270.399,157.272 270,157.5C 268.649,155.981 267.149,154.648 265.5,153.5C 264.355,152.224 264.355,150.891 265.5,149.5C 264.675,148.614 263.675,148.281 262.5,148.5C 262.271,150.433 261.438,152.1 260,153.5C 258.112,151.33 258.279,149.33 260.5,147.5C 261.534,146.313 262.867,145.48 264.5,145C 264,144.5 263.5,144 263,143.5C 259.302,143.007 255.135,143.007 250.5,143.5C 250.808,145.924 250.474,148.257 249.5,150.5C 248.828,149.051 248.161,147.718 247.5,146.5C 247.306,144.088 245.973,143.088 243.5,143.5C 243.557,147.133 242.557,147.3 240.5,144C 238.19,143.503 235.857,143.337 233.5,143.5C 232.432,142.566 231.099,142.232 229.5,142.5C 229.869,144.993 229.203,145.66 227.5,144.5C 226.081,143.549 224.415,143.216 222.5,143.5C 222.313,145.564 221.813,147.564 221,149.5C 219.289,146.42 216.789,145.254 213.5,146C 213.957,146.414 214.291,146.914 214.5,147.5C 209.095,147.76 204.095,149.093 199.5,151.5C 193.653,151.197 193.319,150.031 198.5,148C 197.646,146.978 196.646,146.145 195.5,145.5C 193.272,147.037 191.272,148.704 189.5,150.5C 188.181,149.103 186.514,148.437 184.5,148.5C 181.643,150.461 178.643,151.128 175.5,150.5C 174.449,149.115 173.116,148.115 171.5,147.5C 170.575,148.641 169.741,148.641 169,147.5C 168.598,148.872 168.098,150.205 167.5,151.5C 168.993,152.141 169.993,153.141 170.5,154.5C 166.479,154.756 165.146,153.09 166.5,149.5C 163.813,148.902 161.646,147.569 160,145.5C 157.959,146.423 155.792,146.756 153.5,146.5C 151.643,143.982 149.81,143.982 148,146.5C 147.308,147.437 147.475,148.103 148.5,148.5C 149.441,153.134 148.107,154.301 144.5,152C 145.41,149.71 144.41,148.544 141.5,148.5C 138.972,149.169 138.972,150.002 141.5,151C 140.584,151.278 139.918,151.778 139.5,152.5C 138.167,152.5 136.833,152.5 135.5,152.5C 135.5,151.5 135.5,150.5 135.5,149.5C 133.876,149.36 132.71,150.027 132,151.5C 131.667,150.5 131.333,149.5 131,148.5C 130.71,150.044 130.044,151.377 129,152.5C 127.887,151.289 126.72,151.289 125.5,152.5C 123.89,150.74 121.89,149.74 119.5,149.5C 117.895,150.43 116.395,150.43 115,149.5C 113.433,151.168 111.766,151.502 110,150.5C 105.49,153.418 101.657,152.584 98.5,148C 94.9605,147.718 91.4605,147.218 88,146.5C 86.6974,146.978 85.5307,147.645 84.5,148.5C 83.6829,146.522 82.1829,145.522 80,145.5C 77.474,146.064 74.974,146.731 72.5,147.5C 71.5581,147.392 70.7247,147.059 70,146.5C 69.6929,149.876 67.8595,151.21 64.5,150.5C 60.294,149.101 55.9606,148.768 51.5,149.5C 49.0521,148.527 46.3854,148.194 43.5,148.5C 42.6857,146.727 41.3524,146.227 39.5,147C 40.8333,147.667 40.8333,148.333 39.5,149C 36.5071,150.369 33.5071,150.703 30.5,150C 28.4492,151.423 26.4492,152.923 24.5,154.5C 23.1401,153.82 21.8068,153.153 20.5,152.5C 19.3778,151.053 17.8778,150.053 16,149.5C 10.5529,149.47 5.05294,149.804 -0.5,150.5C -0.5,100.167 -0.5,49.8333 -0.5,-0.5 Z"/></g>
<g><path style="opacity:1" fill="#787878" d="M 89.5,1.5 C 91.337,1.63945 91.6704,2.30612 90.5,3.5C 89.7025,3.04311 89.3691,2.37644 89.5,1.5 Z"/></g>
<g><path style="opacity:1" fill="#828282" d="M 497.5,2.5 C 499.337,2.63945 499.67,3.30612 498.5,4.5C 497.702,4.04311 497.369,3.37644 497.5,2.5 Z"/></g>
<g><path style="opacity:1" fill="#767676" d="M 151.5,3.5 C 153.337,3.63945 153.67,4.30612 152.5,5.5C 151.702,5.04311 151.369,4.37644 151.5,3.5 Z"/></g>
<g><path style="opacity:1" fill="#a8a8a8" d="M 389.5,8.5 C 392.001,8.51092 392.168,9.17759 390,10.5C 389.536,9.90558 389.369,9.23891 389.5,8.5 Z"/></g>
<g><path style="opacity:1" fill="#828282" d="M 397.5,9.5 C 399.337,9.63945 399.67,10.3061 398.5,11.5C 397.702,11.0431 397.369,10.3764 397.5,9.5 Z"/></g>
<g><path style="opacity:1" fill="#838383" d="M 138.5,12.5 C 140.337,12.6395 140.67,13.3061 139.5,14.5C 138.702,14.0431 138.369,13.3764 138.5,12.5 Z"/></g>
<g><path style="opacity:1" fill="#94afbc" d="M 340.5,13.5 C 335.448,10.5686 330.615,10.902 326,14.5C 325.042,16.1992 324.542,18.0326 324.5,20C 325.866,24.3929 326.532,28.8929 326.5,33.5C 325.5,33.5 324.5,33.5 323.5,33.5C 322.448,33.6495 321.448,33.4828 320.5,33C 321.743,31.8455 322.743,30.5122 323.5,29C 320.711,28.7586 318.044,28.092 315.5,27C 317.351,25.3163 319.018,23.4829 320.5,21.5C 318.874,20.0095 317.208,18.5095 315.5,17C 317.087,16.1376 318.754,15.4709 320.5,15C 321.022,14.4387 321.355,13.772 321.5,13C 321.117,10.0362 320.117,7.36953 318.5,5C 322.328,6.73816 326.328,8.23816 330.5,9.5C 330.687,7.43571 331.187,5.43571 332,3.5C 333.675,5.53206 335.342,7.53206 337,9.5C 338.261,9.24092 339.261,8.57425 340,7.5C 340.495,9.4727 340.662,11.4727 340.5,13.5 Z"/></g>
<g><path style="opacity:1" fill="#f2f2f2" d="M 344.5,18.5 C 344.5,19.8333 344.5,21.1667 344.5,22.5C 342.801,22.6602 341.134,22.4935 339.5,22C 338,19.8333 338.5,18.3333 341,17.5C 342.138,17.9891 343.305,18.3225 344.5,18.5 Z"/></g>
<g><path style="opacity:1" fill="#bcbcbc" d="M 463.5,17.5 C 465.337,17.6395 465.67,18.3061 464.5,19.5C 463.702,19.0431 463.369,18.3764 463.5,17.5 Z"/></g>
<g><path style="opacity:1" fill="#b6b6b6" d="M 205.5,20.5 C 207.337,20.6395 207.67,21.3061 206.5,22.5C 205.702,22.0431 205.369,21.3764 205.5,20.5 Z"/></g>
<g><path style="opacity:1" fill="#7c7c7c" d="M 481.5,19.5 C 483.337,19.6395 483.67,20.3061 482.5,21.5C 481.702,21.0431 481.369,20.3764 481.5,19.5 Z"/></g>
<g><path style="opacity:1" fill="#848484" d="M 163.5,26.5 C 165.337,26.6395 165.67,27.3061 164.5,28.5C 163.702,28.0431 163.369,27.3764 163.5,26.5 Z"/></g>
<g><path style="opacity:1" fill="#9d9c98" d="M 340.5,13.5 C 341.718,14.1614 343.051,14.8281 344.5,15.5C 343.209,16.5272 343.209,17.5272 344.5,18.5C 343.305,18.3225 342.138,17.9891 341,17.5C 338.5,18.3333 338,19.8333 339.5,22C 341.134,22.4935 342.801,22.6602 344.5,22.5C 346.977,23.12 346.977,24.12 344.5,25.5C 345.572,27.7169 346.239,30.0502 346.5,32.5C 346.66,34.3545 345.993,35.6879 344.5,36.5C 343.852,35.0206 343.519,33.5206 343.5,32C 341.833,32.6667 340.167,32.6667 338.5,32C 339.191,33.0674 339.691,34.2341 340,35.5C 340.667,36.8333 341.333,36.8333 342,35.5C 342.483,36.448 342.649,37.448 342.5,38.5C 341.094,38.9731 340.427,39.9731 340.5,41.5C 339.167,41.5 337.833,41.5 336.5,41.5C 335.196,54.3722 335.196,67.3722 336.5,80.5C 335.5,80.5 334.5,80.5 333.5,80.5C 333.507,77.9621 333.841,75.4621 334.5,73C 333.264,69.9078 332.097,66.7411 331,63.5C 330.282,75.2074 329.616,86.8741 329,98.5C 329.383,97.944 329.883,97.6107 330.5,97.5C 330.107,99.2838 329.441,100.95 328.5,102.5C 327.504,102.586 326.671,102.252 326,101.5C 325.252,103.751 323.752,105.084 321.5,105.5C 324.231,102.073 325.231,98.0725 324.5,93.5C 325.833,93.5 327.167,93.5 328.5,93.5C 328.307,81.8031 328.807,70.1364 330,58.5C 330.333,58.1667 330.667,57.8333 331,57.5C 331.798,60.8931 332.798,64.2265 334,67.5C 334.667,63.5 334.667,59.5 334,55.5C 333.667,55.8333 333.333,56.1667 333,56.5C 332.641,53.4557 331.974,53.1224 331,55.5C 329.969,47.9469 330.969,47.6135 334,54.5C 334.167,52.3333 334.333,50.1667 334.5,48C 334.467,45.3897 333.8,43.223 332.5,41.5C 333.398,40.8423 334.398,40.1757 335.5,39.5C 334.38,37.4038 332.88,37.0705 331,38.5C 330.21,36.2102 328.876,35.8769 327,37.5C 325.174,36.9896 325.007,36.1562 326.5,35C 325.263,34.7679 324.263,34.2679 323.5,33.5C 324.5,33.5 325.5,33.5 326.5,33.5C 326.532,28.8929 325.866,24.3929 324.5,20C 324.542,18.0326 325.042,16.1992 326,14.5C 330.615,10.902 335.448,10.5686 340.5,13.5 Z"/></g>
<g><path style="opacity:1" fill="#f7f7f8" d="M 332.5,19.5 C 333.913,20.9911 335.413,21.6577 337,21.5C 337.684,22.7839 337.517,23.9505 336.5,25C 330.546,26.2271 329.212,24.3938 332.5,19.5 Z"/></g>
<g><path style="opacity:1" fill="#aaaaaa" d="M 144.5,30.5 C 145.675,30.281 146.675,30.6143 147.5,31.5C 145.948,32.7979 144.948,32.4646 144.5,30.5 Z"/></g>
<g><path style="opacity:1" fill="#787878" d="M 397.5,32.5 C 399.337,32.6395 399.67,33.3061 398.5,34.5C 397.702,34.0431 397.369,33.3764 397.5,32.5 Z"/></g>
<g><path style="opacity:1" fill="#a1a1a1" d="M 427.5,32.5 C 429.337,32.6395 429.67,33.3061 428.5,34.5C 427.702,34.0431 427.369,33.3764 427.5,32.5 Z"/></g>
<g><path style="opacity:1" fill="#767676" d="M 176.5,33.5 C 178.337,33.6395 178.67,34.3061 177.5,35.5C 176.702,35.0431 176.369,34.3764 176.5,33.5 Z"/></g>
<g><path style="opacity:1" fill="#131312" d="M 342.5,38.5 C 343.598,39.6009 343.765,40.9343 343,42.5C 342.329,41.7476 341.496,41.4142 340.5,41.5C 340.427,39.9731 341.094,38.9731 342.5,38.5 Z"/></g>
<g><path style="opacity:1" fill="#757575" d="M 360.5,38.5 C 362.337,38.6395 362.67,39.3061 361.5,40.5C 360.702,40.0431 360.369,39.3764 360.5,38.5 Z"/></g>
<g><path style="opacity:1" fill="#86acab" d="M 336.5,41.5 C 337.568,42.4345 338.901,42.7678 340.5,42.5C 340.337,44.8568 340.503,47.1902 341,49.5C 341.333,47.8333 341.667,46.1667 342,44.5C 343.52,48.3749 343.854,52.3749 343,56.5C 342.667,54.5 342.333,52.5 342,50.5C 341.802,58.6897 342.302,66.8564 343.5,75C 343.302,77.1206 342.636,78.9539 341.5,80.5C 339.833,80.5 338.167,80.5 336.5,80.5C 335.196,67.3722 335.196,54.3722 336.5,41.5 Z"/></g>
<g><path style="opacity:1" fill="#55381d" d="M 310.5,69.5 C 315.375,56.0521 310.709,49.0521 296.5,48.5C 295.355,47.2073 295.689,46.0407 297.5,45C 301.5,43 305.5,43 309.5,45C 311.043,46.8783 312.876,48.3783 315,49.5C 316.552,51.7682 317.385,54.2682 317.5,57C 318.108,63.0192 315.775,67.1859 310.5,69.5 Z"/></g>
<g><path style="opacity:1" fill="#b9b9b9" d="M 187.5,48.5 C 189.337,48.6395 189.67,49.3061 188.5,50.5C 187.702,50.0431 187.369,49.3764 187.5,48.5 Z"/></g>
<g><path style="opacity:1" fill="#f3f3f4" d="M 290.5,51.5 C 292.292,51.366 293.958,51.6993 295.5,52.5C 295.619,57.722 293.286,59.3887 288.5,57.5C 288.054,54.9899 288.72,52.9899 290.5,51.5 Z"/></g>
<g><path style="opacity:1" fill="#888888" d="M 488.5,51.5 C 490.337,51.6395 490.67,52.3061 489.5,53.5C 488.702,53.0431 488.369,52.3764 488.5,51.5 Z"/></g>
<g><path style="opacity:1" fill="#9e8c7e" d="M 305.5,55.5 C 303.039,54.0265 300.706,54.1932 298.5,56C 299.711,57.1131 299.711,58.2798 298.5,59.5C 299.193,60.5178 299.859,61.5178 300.5,62.5C 298.112,61.7813 296.612,60.1146 296,57.5C 293.928,58.9597 293.094,60.6264 293.5,62.5C 291.729,61.9646 291.396,61.1313 292.5,60C 291.234,59.6905 290.067,59.1905 289,58.5C 288.503,60.8098 288.337,63.1432 288.5,65.5C 287.167,62.8333 287.167,60.1667 288.5,57.5C 293.286,59.3887 295.619,57.722 295.5,52.5C 298.604,53.4432 301.437,52.7765 304,50.5C 305.167,51.6667 306.333,52.8333 307.5,54C 306.584,54.2784 305.918,54.7784 305.5,55.5 Z"/></g>
<g><path style="opacity:1" fill="#f8f9f9" d="M 305.5,55.5 C 305.662,57.5273 305.495,59.5273 305,61.5C 303.644,62.3802 302.144,62.7135 300.5,62.5C 299.859,61.5178 299.193,60.5178 298.5,59.5C 299.711,58.2798 299.711,57.1131 298.5,56C 300.706,54.1932 303.039,54.0265 305.5,55.5 Z"/></g>
<g><path style="opacity:1" fill="#d3d3d3" d="M 50.5,54.5 C 52.337,54.6395 52.6704,55.3061 51.5,56.5C 50.7025,56.0431 50.3691,55.3764 50.5,54.5 Z"/></g>
<g><path style="opacity:1" fill="#b4b4b4" d="M 363.5,54.5 C 365.337,54.6395 365.67,55.3061 364.5,56.5C 363.702,56.0431 363.369,55.3764 363.5,54.5 Z"/></g>
<g><path style="opacity:1" fill="#c5a691" d="M 296.5,48.5 C 310.709,49.0521 315.375,56.0521 310.5,69.5C 308.338,70.1276 306.672,71.461 305.5,73.5C 301.434,73.693 297.434,73.3597 293.5,72.5C 291.445,70.4451 289.779,68.1117 288.5,65.5C 288.337,63.1432 288.503,60.8098 289,58.5C 290.067,59.1905 291.234,59.6905 292.5,60C 291.396,61.1313 291.729,61.9646 293.5,62.5C 293.094,60.6264 293.928,58.9597 296,57.5C 296.612,60.1146 298.112,61.7813 300.5,62.5C 302.144,62.7135 303.644,62.3802 305,61.5C 305.495,59.5273 305.662,57.5273 305.5,55.5C 305.918,54.7784 306.584,54.2784 307.5,54C 306.333,52.8333 305.167,51.6667 304,50.5C 301.437,52.7765 298.604,53.4432 295.5,52.5C 293.958,51.6993 292.292,51.366 290.5,51.5C 292.5,50.5 294.5,49.5 296.5,48.5 Z"/></g>
<g><path style="opacity:1" fill="#6b746f" d="M 344.5,36.5 C 344.5,38.8333 344.5,41.1667 344.5,43.5C 345.155,51.4681 345.488,59.4681 345.5,67.5C 344.8,71.7978 344.467,76.1311 344.5,80.5C 343.5,80.5 342.5,80.5 341.5,80.5C 342.636,78.9539 343.302,77.1206 343.5,75C 342.302,66.8564 341.802,58.6897 342,50.5C 342.333,52.5 342.667,54.5 343,56.5C 343.854,52.3749 343.52,48.3749 342,44.5C 341.667,46.1667 341.333,47.8333 341,49.5C 340.503,47.1902 340.337,44.8568 340.5,42.5C 338.901,42.7678 337.568,42.4345 336.5,41.5C 337.833,41.5 339.167,41.5 340.5,41.5C 341.496,41.4142 342.329,41.7476 343,42.5C 343.765,40.9343 343.598,39.6009 342.5,38.5C 342.649,37.448 342.483,36.448 342,35.5C 341.333,36.8333 340.667,36.8333 340,35.5C 339.691,34.2341 339.191,33.0674 338.5,32C 340.167,32.6667 341.833,32.6667 343.5,32C 343.519,33.5206 343.852,35.0206 344.5,36.5 Z"/></g>
<g><path style="opacity:1" fill="#979797" d="M 344.5,43.5 C 346.941,45.0745 348.107,47.4079 348,50.5C 348.595,63.7725 349.761,76.9392 351.5,90C 351.604,94.7843 351.27,99.6176 350.5,104.5C 348.462,92.2118 346.795,79.8785 345.5,67.5C 345.488,59.4681 345.155,51.4681 344.5,43.5 Z"/></g>
<g><path style="opacity:1" fill="#c2c2c2" d="M 332.5,41.5 C 333.8,43.223 334.467,45.3897 334.5,48C 334.333,50.1667 334.167,52.3333 334,54.5C 330.969,47.6135 329.969,47.9469 331,55.5C 331.974,53.1224 332.641,53.4557 333,56.5C 333.333,56.1667 333.667,55.8333 334,55.5C 334.667,59.5 334.667,63.5 334,67.5C 332.798,64.2265 331.798,60.8931 331,57.5C 330.667,57.8333 330.333,58.1667 330,58.5C 328.807,70.1364 328.307,81.8031 328.5,93.5C 327.167,93.5 325.833,93.5 324.5,93.5C 323.93,77.6474 324.43,61.6474 326,45.5C 327.272,42.7776 329.439,41.4443 332.5,41.5 Z"/></g>
<g><path style="opacity:1" fill="#c4c167" d="M 293.5,72.5 C 297.434,73.3597 301.434,73.693 305.5,73.5C 308.969,78.8322 309.969,84.4989 308.5,90.5C 307.5,90.5 306.5,90.5 305.5,90.5C 304.346,93.0871 304.013,99.7538 304.5,110.5C 300.167,110.5 295.833,110.5 291.5,110.5C 292.128,103.087 291.461,96.0869 289.5,89.5C 288.682,83.2403 290.015,77.5736 293.5,72.5 Z"/></g>
<g><path style="opacity:1" fill="#cccccc" d="M 333.5,80.5 C 332.745,86.2038 331.745,91.8705 330.5,97.5C 329.883,97.6107 329.383,97.944 329,98.5C 329.616,86.8741 330.282,75.2074 331,63.5C 332.097,66.7411 333.264,69.9078 334.5,73C 333.841,75.4621 333.507,77.9621 333.5,80.5 Z"/></g>
<g><path style="opacity:1" fill="#cecfce" d="M 345.5,67.5 C 346.795,79.8785 348.462,92.2118 350.5,104.5C 350.993,106.806 351.326,109.139 351.5,111.5C 350.179,111.019 349.179,109.685 348.5,107.5C 347.895,98.914 346.561,90.5807 344.5,82.5C 344.5,81.8333 344.5,81.1667 344.5,80.5C 344.467,76.1311 344.8,71.7978 345.5,67.5 Z"/></g>
<g><path style="opacity:1" fill="#6c6a69" d="M 328.5,102.5 C 327.908,105.127 327.575,107.794 327.5,110.5C 326.833,111.167 326.167,111.833 325.5,112.5C 325.44,111.957 325.107,111.624 324.5,111.5C 323.818,112.243 323.151,112.909 322.5,113.5C 322.528,111.418 321.861,109.584 320.5,108C 320.884,107.049 321.217,106.216 321.5,105.5C 323.752,105.084 325.252,103.751 326,101.5C 326.671,102.252 327.504,102.586 328.5,102.5 Z"/></g>
<g><path style="opacity:1" fill="#95826e" d="M 289.5,89.5 C 291.461,96.0869 292.128,103.087 291.5,110.5C 291.5,110.833 291.5,111.167 291.5,111.5C 291.88,113.698 291.213,115.365 289.5,116.5C 289.5,107.5 289.5,98.5 289.5,89.5 Z"/></g>
<g><path style="opacity:1" fill="#99a999" d="M 344.5,82.5 C 346.561,90.5807 347.895,98.914 348.5,107.5C 348.502,111.165 349.835,114.165 352.5,116.5C 352.631,117.239 352.464,117.906 352,118.5C 349.619,117.565 347.119,117.232 344.5,117.5C 344.5,105.833 344.5,94.1667 344.5,82.5 Z"/></g>
<g><path style="opacity:1" fill="#918f4c" d="M 308.5,90.5 C 308.5,90.8333 308.5,91.1667 308.5,91.5C 307.5,91.5 306.5,91.5 305.5,91.5C 305.5,98.1667 305.5,104.833 305.5,111.5C 300.833,111.5 296.167,111.5 291.5,111.5C 291.5,111.167 291.5,110.833 291.5,110.5C 295.833,110.5 300.167,110.5 304.5,110.5C 304.013,99.7538 304.346,93.0871 305.5,90.5C 306.5,90.5 307.5,90.5 308.5,90.5 Z"/></g>
<g><path style="opacity:1" fill="#637361" d="M 348.5,107.5 C 349.179,109.685 350.179,111.019 351.5,111.5C 352.451,112.919 352.784,114.585 352.5,116.5C 349.835,114.165 348.502,111.165 348.5,107.5 Z"/></g>
<g><path style="opacity:1" fill="#bda08c" d="M 308.5,91.5 C 308.264,99.5417 308.597,107.542 309.5,115.5C 306.572,116.513 305.238,115.18 305.5,111.5C 305.5,104.833 305.5,98.1667 305.5,91.5C 306.5,91.5 307.5,91.5 308.5,91.5 Z"/></g>
<g><path style="opacity:1" fill="#202a3c" d="M 291.5,111.5 C 296.167,111.5 300.833,111.5 305.5,111.5C 305.238,115.18 306.572,116.513 309.5,115.5C 308.766,116.708 308.433,118.041 308.5,119.5C 307.5,119.5 306.5,119.5 305.5,119.5C 304.608,129.134 304.275,138.801 304.5,148.5C 304.167,149.167 303.833,149.833 303.5,150.5C 302.391,150.557 301.391,150.89 300.5,151.5C 300.663,147.965 299.33,146.965 296.5,148.5C 295.5,148.5 294.5,148.5 293.5,148.5C 292.549,147.081 292.216,145.415 292.5,143.5C 292.761,134.264 291.761,125.264 289.5,116.5C 291.213,115.365 291.88,113.698 291.5,111.5 Z"/></g>
<g><path style="opacity:1" fill="#04060b" d="M 297.5,114.5 C 298.816,117.087 299.483,120.087 299.5,123.5C 300.038,130.827 300.371,138.16 300.5,145.5C 299.167,145.5 297.833,145.5 296.5,145.5C 296.328,135.143 296.661,124.81 297.5,114.5 Z"/></g>
<g><path style="opacity:1" fill="#0e0d0f" d="M 338.5,107.5 C 339.496,121.323 339.829,135.323 339.5,149.5C 339.5,150.167 339.167,150.5 338.5,150.5C 336.274,148.475 333.941,148.309 331.5,150C 332.222,152.741 333.888,153.741 336.5,153C 336.167,152.667 335.833,152.333 335.5,152C 336.448,151.517 337.448,151.351 338.5,151.5C 338.286,153.144 338.62,154.644 339.5,156C 343.833,156.667 348.167,156.667 352.5,156C 351.619,155.292 350.953,154.458 350.5,153.5C 351.167,152.5 351.833,151.5 352.5,150.5C 353.211,154.189 355.211,155.189 358.5,153.5C 358.577,154.75 359.244,155.583 360.5,156C 360.167,156.333 359.833,156.667 359.5,157C 350.657,157.342 341.823,157.842 333,158.5C 329.795,158.607 326.795,157.94 324,156.5C 322.703,157.784 321.536,157.617 320.5,156C 321.442,152.752 322.775,152.252 324.5,154.5C 326.054,152.067 326.72,149.4 326.5,146.5C 326.833,146.5 327.167,146.5 327.5,146.5C 327.5,147.833 327.5,149.167 327.5,150.5C 328.5,150.5 329.5,150.5 330.5,150.5C 330.5,149.167 330.5,147.833 330.5,146.5C 331.33,136.341 331.83,126.008 332,115.5C 332.278,116.416 332.778,117.082 333.5,117.5C 335.144,117.714 336.644,117.38 338,116.5C 338.498,113.518 338.665,110.518 338.5,107.5 Z"/></g>
<g><path style="opacity:1" fill="#9ea49c" d="M 325.5,112.5 C 326.575,114.856 326.575,117.189 325.5,119.5C 324.264,120.246 322.93,120.579 321.5,120.5C 321.448,118.097 321.781,115.764 322.5,113.5C 323.151,112.909 323.818,112.243 324.5,111.5C 325.107,111.624 325.44,111.957 325.5,112.5 Z"/></g>
<g><path style="opacity:1" fill="#5f523a" d="M 333.5,80.5 C 334.5,80.5 335.5,80.5 336.5,80.5C 338.167,80.5 339.833,80.5 341.5,80.5C 342.5,80.5 343.5,80.5 344.5,80.5C 344.5,81.1667 344.5,81.8333 344.5,82.5C 344.5,94.1667 344.5,105.833 344.5,117.5C 343.506,126.652 343.173,135.985 343.5,145.5C 342.833,145.5 342.5,145.833 342.5,146.5C 340.952,146.821 340.285,147.821 340.5,149.5C 340.167,149.5 339.833,149.5 339.5,149.5C 339.829,135.323 339.496,121.323 338.5,107.5C 338.5,101.5 338.5,95.5 338.5,89.5C 336.833,89.5 335.167,89.5 333.5,89.5C 333.5,98.8333 333.5,108.167 333.5,117.5C 332.778,117.082 332.278,116.416 332,115.5C 331.83,126.008 331.33,136.341 330.5,146.5C 329.5,146.5 328.5,146.5 327.5,146.5C 327.167,146.5 326.833,146.5 326.5,146.5C 326.5,145.167 326.5,143.833 326.5,142.5C 327.345,131.857 327.679,121.19 327.5,110.5C 327.575,107.794 327.908,105.127 328.5,102.5C 329.441,100.95 330.107,99.2838 330.5,97.5C 331.745,91.8705 332.745,86.2038 333.5,80.5 Z"/></g>
<g><path style="opacity:1" fill="#9dac9d" d="M 338.5,107.5 C 338.665,110.518 338.498,113.518 338,116.5C 336.644,117.38 335.144,117.714 333.5,117.5C 333.5,108.167 333.5,98.8333 333.5,89.5C 335.167,89.5 336.833,89.5 338.5,89.5C 338.5,95.5 338.5,101.5 338.5,107.5 Z"/></g>
<g><path style="opacity:1" fill="#061a48" d="M 468.5,138.5 C 471.397,138.125 474.063,138.625 476.5,140C 475.167,140.167 473.833,140.333 472.5,140.5C 470.667,140.415 469.334,139.748 468.5,138.5 Z"/></g>
<g><path style="opacity:1" fill="#0a0b20" d="M 368.5,143.5 C 368.062,143.435 367.728,143.601 367.5,144C 370.145,145.287 371.145,147.453 370.5,150.5C 368.9,151.512 367.566,151.012 366.5,149C 367.711,148.107 367.711,147.274 366.5,146.5C 362.946,143.896 359.279,141.562 355.5,139.5C 355.783,138.711 356.283,138.044 357,137.5C 359.103,139.916 361.103,139.916 363,137.5C 364.3,138.707 365.8,139.374 367.5,139.5C 367.433,140.959 367.766,142.292 368.5,143.5 Z"/></g>
<g><path style="opacity:1" fill="#08091b" d="M 470.5,143.5 C 470.38,144.586 469.713,145.253 468.5,145.5C 465.171,143.978 461.505,143.311 457.5,143.5C 454.991,144.836 452.324,145.67 449.5,146C 452.004,146.698 454.337,147.531 456.5,148.5C 453.796,148.67 452.129,150.003 451.5,152.5C 448.827,152.316 448.16,151.149 449.5,149C 447.295,147.294 444.962,145.794 442.5,144.5C 445.845,143.489 448.845,142.156 451.5,140.5C 452.117,140.611 452.617,140.944 453,141.5C 453.624,139.246 454.957,137.579 457,136.5C 457.428,140.607 459.595,142.44 463.5,142C 463.043,141.586 462.709,141.086 462.5,140.5C 463.167,140.167 463.833,139.833 464.5,139.5C 463.833,138.833 463.167,138.167 462.5,137.5C 464.104,133.741 466.104,133.575 468.5,137C 464.824,139.953 465.491,142.12 470.5,143.5 Z"/></g>
<g><path style="opacity:1" fill="#071338" d="M 413.5,153.5 C 412.833,153.5 412.167,153.5 411.5,153.5C 409.765,151.229 407.765,149.229 405.5,147.5C 404.209,146.527 404.209,145.527 405.5,144.5C 407.034,143.264 408.7,142.764 410.5,143C 411.791,145.09 411.124,146.424 408.5,147C 410.054,149.287 411.721,151.454 413.5,153.5 Z"/></g>
<g><path style="opacity:1" fill="#07091c" d="M 233.5,143.5 C 232.325,143.281 231.325,143.614 230.5,144.5C 232.743,145.474 235.076,145.808 237.5,145.5C 237.263,146.791 237.596,147.791 238.5,148.5C 239.341,150.379 239.675,152.379 239.5,154.5C 238.167,154.5 236.833,154.5 235.5,154.5C 234.118,151.279 231.785,148.779 228.5,147C 227.748,146.329 227.414,145.496 227.5,144.5C 229.203,145.66 229.869,144.993 229.5,142.5C 231.099,142.232 232.432,142.566 233.5,143.5 Z"/></g>
<g><path style="opacity:1" fill="#071640" d="M 233.5,143.5 C 235.857,143.337 238.19,143.503 240.5,144C 242.557,147.3 243.557,147.133 243.5,143.5C 245.973,143.088 247.306,144.088 247.5,146.5C 245.123,146.877 242.623,146.877 240,146.5C 239.283,147.044 238.783,147.711 238.5,148.5C 237.596,147.791 237.263,146.791 237.5,145.5C 235.076,145.808 232.743,145.474 230.5,144.5C 231.325,143.614 232.325,143.281 233.5,143.5 Z"/></g>
<g><path style="opacity:1" fill="#051b50" d="M 260.5,147.5 C 259.177,146.392 257.677,146.392 256,147.5C 252.037,144.929 250.537,146.263 251.5,151.5C 248.786,151.75 246.119,151.917 243.5,152C 245.819,150.853 247.152,149.019 247.5,146.5C 248.161,147.718 248.828,149.051 249.5,150.5C 250.474,148.257 250.808,145.924 250.5,143.5C 255.135,143.007 259.302,143.007 263,143.5C 263.5,144 264,144.5 264.5,145C 262.867,145.48 261.534,146.313 260.5,147.5 Z"/></g>
<g><path style="opacity:1" fill="#091f5b" d="M 470.5,143.5 C 472.179,143.285 473.179,143.952 473.5,145.5C 467.778,146.082 462.111,147.082 456.5,148.5C 454.337,147.531 452.004,146.698 449.5,146C 452.324,145.67 454.991,144.836 457.5,143.5C 461.505,143.311 465.171,143.978 468.5,145.5C 469.713,145.253 470.38,144.586 470.5,143.5 Z"/></g>
<g><path style="opacity:1" fill="#061437" d="M 377.5,141.5 C 378.482,142.141 379.482,142.807 380.5,143.5C 382.064,142.814 383.731,142.981 385.5,144C 387.397,147.303 389.064,147.136 390.5,143.5C 391.622,144.63 392.956,145.297 394.5,145.5C 392.597,146.451 390.597,147.451 388.5,148.5C 386.971,148.471 385.804,147.804 385,146.5C 384.174,148.405 383.007,148.739 381.5,147.5C 382.025,146.808 382.692,146.308 383.5,146C 381.75,144.681 379.75,144.181 377.5,144.5C 377.5,143.5 377.5,142.5 377.5,141.5 Z"/></g>
<g><path style="opacity:1" fill="#072362" d="M 451.5,140.5 C 448.845,142.156 445.845,143.489 442.5,144.5C 444.962,145.794 447.295,147.294 449.5,149C 448.16,151.149 448.827,152.316 451.5,152.5C 452.468,155.026 451.634,155.692 449,154.5C 448.517,155.448 448.351,156.448 448.5,157.5C 450.973,157.088 452.306,158.088 452.5,160.5C 441.167,160.5 429.833,160.5 418.5,160.5C 420.086,158.055 422.419,156.555 425.5,156C 423.406,154.648 421.073,154.148 418.5,154.5C 416.206,154.528 413.873,154.195 411.5,153.5C 412.167,153.5 412.833,153.5 413.5,153.5C 414.29,152.391 414.79,151.058 415,149.5C 418.267,151.101 421.767,151.934 425.5,152C 426.931,152.465 428.097,153.299 429,154.5C 430.15,152.246 430.484,149.913 430,147.5C 426.449,146.767 422.949,145.767 419.5,144.5C 422.479,144.901 425.479,144.234 428.5,142.5C 430.187,142.76 431.687,143.427 433,144.5C 433.192,142.423 433.692,140.423 434.5,138.5C 436.985,141.077 439.485,141.077 442,138.5C 444.935,140.192 448.102,140.858 451.5,140.5 Z"/></g>
<g><path style="opacity:1" fill="#0c0d21" d="M 508.5,149.5 C 506.104,151.023 503.438,152.023 500.5,152.5C 499.711,152.217 499.044,151.717 498.5,151C 503.586,149.148 503.586,147.981 498.5,147.5C 500.56,146.189 502.726,146.189 505,147.5C 505.844,144.322 507.511,141.655 510,139.5C 510.5,140.5 511,141.5 511.5,142.5C 510.527,145.135 508.86,147.135 506.5,148.5C 506.957,149.298 507.624,149.631 508.5,149.5 Z"/></g>
<g><path style="opacity:1" fill="#062872" d="M 554.5,147.5 C 556.23,148.026 557.564,149.026 558.5,150.5C 557.791,151.404 556.791,151.737 555.5,151.5C 552.794,151.425 550.127,151.092 547.5,150.5C 546.761,150.631 546.094,150.464 545.5,150C 547.5,149 549.5,148 551.5,147C 550.04,146.189 549.707,145.355 550.5,144.5C 551.852,145.524 553.185,146.524 554.5,147.5 Z"/></g>
<g><path style="opacity:1" fill="#022763" d="M 300.5,151.5 C 299.167,151.5 297.833,151.5 296.5,151.5C 296.5,150.5 296.5,149.5 296.5,148.5C 299.33,146.965 300.663,147.965 300.5,151.5 Z"/></g>
<g><path style="opacity:1" fill="#08215c" d="M 484.5,146.5 C 483.849,147.091 483.182,147.757 482.5,148.5C 480.401,146.466 478.068,146.132 475.5,147.5C 476.833,147.833 478.167,148.167 479.5,148.5C 475.772,150.348 471.772,151.348 467.5,151.5C 467.5,150.5 467.5,149.5 467.5,148.5C 469.857,148.663 472.19,148.497 474.5,148C 473.748,147.329 473.414,146.496 473.5,145.5C 475.5,145.5 477.5,145.5 479.5,145.5C 479.33,144.178 479.663,143.011 480.5,142C 479.833,141.667 479.167,141.333 478.5,141C 483.637,140.53 486.47,137.696 487,132.5C 489.097,136.268 491.597,139.768 494.5,143C 494.333,143.5 494.167,144 494,144.5C 490.744,142.571 487.244,142.071 483.5,143C 485.727,143.704 486.06,144.871 484.5,146.5 Z"/></g>
<g><path style="opacity:1" fill="#081948" d="M 554.5,147.5 C 553.185,146.524 551.852,145.524 550.5,144.5C 549.707,145.355 550.04,146.189 551.5,147C 549.5,148 547.5,149 545.5,150C 546.094,150.464 546.761,150.631 547.5,150.5C 547.369,151.239 547.536,151.906 548,152.5C 549.632,153.528 551.132,154.528 552.5,155.5C 548.293,155.337 544.126,155.671 540,156.5C 537.321,155.105 534.488,154.439 531.5,154.5C 534.796,152.973 537.962,153.307 541,155.5C 541.11,153.152 542.277,151.652 544.5,151C 540.196,149.894 535.863,148.894 531.5,148C 534.449,147.573 537.283,146.739 540,145.5C 542.154,146.252 544.32,146.419 546.5,146C 545.664,144.757 545.997,143.59 547.5,142.5C 549.444,143.189 551.444,143.689 553.5,144C 554.337,145.011 554.67,146.178 554.5,147.5 Z"/></g>
<g><path style="opacity:1" fill="#061643" d="M 355.5,139.5 C 359.279,141.562 362.946,143.896 366.5,146.5C 367.711,147.274 367.711,148.107 366.5,149C 367.566,151.012 368.9,151.512 370.5,150.5C 369.545,152.71 368.045,153.043 366,151.5C 365.517,152.448 365.351,153.448 365.5,154.5C 363.447,154.598 361.78,153.931 360.5,152.5C 361.931,151.554 363.264,150.388 364.5,149C 361.199,146.626 357.533,145.96 353.5,147C 354.71,148.039 355.71,149.206 356.5,150.5C 355.167,150.5 353.833,150.5 352.5,150.5C 351.833,151.5 351.167,152.5 350.5,153.5C 349.833,153.167 349.167,152.833 348.5,152.5C 347.166,149.243 347.832,147.243 350.5,146.5C 349.5,145.833 348.5,145.167 347.5,144.5C 349.078,143.702 350.744,143.202 352.5,143C 353.163,141.482 354.163,140.315 355.5,139.5 Z"/></g>
<g><path style="opacity:1" fill="#050613" d="M 435.5,147.5 C 439.322,147.969 442.989,148.969 446.5,150.5C 445.158,151.876 443.825,153.209 442.5,154.5C 439.123,153.123 436.789,150.79 435.5,147.5 Z"/></g>
<g><path style="opacity:1" fill="#08133b" d="M 596.5,152.5 C 593.233,154.083 590.233,153.75 587.5,151.5C 587.563,152.66 587.23,153.994 586.5,155.5C 582.072,157.052 580.405,155.386 581.5,150.5C 582.222,150.918 582.722,151.584 583,152.5C 584.968,147.785 587.468,147.451 590.5,151.5C 592.338,148.303 594.338,148.636 596.5,152.5 Z"/></g>
<g><path style="opacity:1" fill="#07215b" d="M 84.5,148.5 C 84.5654,148.938 84.3988,149.272 84,149.5C 81.5346,147.575 78.868,147.575 76,149.5C 74.1197,148.07 72.6197,148.404 71.5,150.5C 72.3333,150.833 73.1667,151.167 74,151.5C 75.9354,150.657 77.7688,150.657 79.5,151.5C 77.7721,153.226 75.7721,154.559 73.5,155.5C 73.0024,156.603 72.6691,157.603 72.5,158.5C 71.5,158 70.5,157.5 69.5,157C 70.6537,156.086 70.487,155.253 69,154.5C 67.566,156.136 65.7326,157.136 63.5,157.5C 62.1668,154.862 62.5002,152.529 64.5,150.5C 67.8595,151.21 69.6929,149.876 70,146.5C 70.7247,147.059 71.5581,147.392 72.5,147.5C 74.974,146.731 77.474,146.064 80,145.5C 82.1829,145.522 83.6829,146.522 84.5,148.5 Z"/></g>
<g><path style="opacity:1" fill="#032156" d="M 292.5,143.5 C 292.216,145.415 292.549,147.081 293.5,148.5C 293.167,150.833 291.833,152.167 289.5,152.5C 288.778,152.082 288.278,151.416 288,150.5C 286.366,152.062 284.866,153.729 283.5,155.5C 282.448,155.351 281.448,155.517 280.5,156C 281.517,157.049 281.684,158.216 281,159.5C 277.527,155.536 275.694,155.869 275.5,160.5C 275.167,160.5 274.833,160.5 274.5,160.5C 274.512,157.858 273.179,156.525 270.5,156.5C 269.709,152.919 270.875,152.586 274,155.5C 274.167,155.167 274.333,154.833 274.5,154.5C 273.482,153.148 272.149,152.148 270.5,151.5C 271.776,150.355 273.109,150.355 274.5,151.5C 275.386,150.675 275.719,149.675 275.5,148.5C 278.845,147.743 281.679,146.076 284,143.5C 284.689,144.357 285.522,145.023 286.5,145.5C 288.323,144.253 290.323,143.586 292.5,143.5 Z"/></g>
<g><path style="opacity:1" fill="#bcbdbd" d="M 293.5,148.5 C 294.5,148.5 295.5,148.5 296.5,148.5C 296.5,149.5 296.5,150.5 296.5,151.5C 296.5,152.5 296.5,153.5 296.5,154.5C 293.531,155.329 290.531,155.495 287.5,155C 288.381,154.292 289.047,153.458 289.5,152.5C 291.833,152.167 293.167,150.833 293.5,148.5 Z"/></g>
<g><path style="opacity:1" fill="#02030a" d="M 547.5,150.5 C 550.127,151.092 552.794,151.425 555.5,151.5C 556.429,152.315 557.429,153.148 558.5,154C 555.917,153.139 554.584,154.305 554.5,157.5C 553.5,157.167 552.833,156.5 552.5,155.5C 551.132,154.528 549.632,153.528 548,152.5C 547.536,151.906 547.369,151.239 547.5,150.5 Z"/></g>
<g><path style="opacity:1" fill="#080d1c" d="M 303.5,151.5 C 305.736,152.389 307.736,153.722 309.5,155.5C 307.604,156.466 305.604,156.799 303.5,156.5C 304.833,154.833 304.833,153.167 303.5,151.5 Z"/></g>
<g><path style="opacity:1" fill="#081845" d="M 531.5,154.5 C 525.841,157.978 521.508,156.645 518.5,150.5C 514.893,153.428 510.726,155.094 506,155.5C 505.05,154.978 504.216,154.311 503.5,153.5C 501.293,155.31 498.959,155.643 496.5,154.5C 497.949,153.828 499.282,153.161 500.5,152.5C 503.438,152.023 506.104,151.023 508.5,149.5C 508.735,148.903 509.235,148.57 510,148.5C 511.86,150.201 514.027,151.201 516.5,151.5C 516.5,147.5 518.5,145.5 522.5,145.5C 522.617,147.484 521.95,149.15 520.5,150.5C 521.947,152.403 523.614,154.07 525.5,155.5C 526.167,154.5 526.833,153.5 527.5,152.5C 528.622,153.63 529.956,154.297 531.5,154.5 Z"/></g>
<g><path style="opacity:1" fill="#08143a" d="M 639.5,147.5 C 639.5,150.833 639.5,154.167 639.5,157.5C 638.162,155.887 636.495,155.387 634.5,156C 637,156.833 637.167,158 635,159.5C 634.329,158.748 633.496,158.414 632.5,158.5C 631.259,156.122 631.926,154.289 634.5,153C 633.376,152.751 632.376,152.251 631.5,151.5C 634.658,150.907 637.325,149.574 639.5,147.5 Z"/></g>
<g><path style="opacity:1" fill="#052a75" d="M 153.5,146.5 C 155.698,147.165 158.031,147.832 160.5,148.5C 159.77,150.006 159.437,151.34 159.5,152.5C 158.614,151.675 158.281,150.675 158.5,149.5C 155.795,149.38 155.128,150.38 156.5,152.5C 154.577,153.308 152.577,153.808 150.5,154C 151.108,154.87 151.941,155.37 153,155.5C 155.521,154.327 158.021,154.327 160.5,155.5C 155.794,156.338 151.128,157.338 146.5,158.5C 146.863,159.183 147.196,159.85 147.5,160.5C 135.5,160.5 123.5,160.5 111.5,160.5C 111.209,159.351 110.376,158.684 109,158.5C 107.624,158.684 106.791,159.351 106.5,160.5C 101.5,160.5 96.5,160.5 91.5,160.5C 91.1788,158.952 90.1788,158.285 88.5,158.5C 88.719,157.325 88.3857,156.325 87.5,155.5C 86.305,157.121 85.305,158.787 84.5,160.5C 74.1667,160.5 63.8333,160.5 53.5,160.5C 53.3152,158.11 51.9818,157.11 49.5,157.5C 47.0582,157.286 45.3915,158.286 44.5,160.5C 38.5,160.5 32.5,160.5 26.5,160.5C 25.3915,159.71 24.0581,159.21 22.5,159C 23.6667,155.833 25.1667,155.667 27,158.5C 28.6279,157.181 28.4613,155.848 26.5,154.5C 27.3914,153.41 28.3914,153.41 29.5,154.5C 30.7989,153.91 31.6322,152.91 32,151.5C 33.5333,151.944 35.0333,152.277 36.5,152.5C 38.7254,150.89 41.0587,149.557 43.5,148.5C 46.3854,148.194 49.0521,148.527 51.5,149.5C 52.4961,150.665 53.8295,151.332 55.5,151.5C 58.4486,150.698 61.4486,150.364 64.5,150.5C 62.5002,152.529 62.1668,154.862 63.5,157.5C 65.7326,157.136 67.566,156.136 69,154.5C 70.487,155.253 70.6537,156.086 69.5,157C 70.5,157.5 71.5,158 72.5,158.5C 72.6691,157.603 73.0024,156.603 73.5,155.5C 75.7721,154.559 77.7721,153.226 79.5,151.5C 77.7688,150.657 75.9354,150.657 74,151.5C 73.1667,151.167 72.3333,150.833 71.5,150.5C 72.6197,148.404 74.1197,148.07 76,149.5C 78.868,147.575 81.5346,147.575 84,149.5C 84.3988,149.272 84.5654,148.938 84.5,148.5C 85.5307,147.645 86.6974,146.978 88,146.5C 91.4605,147.218 94.9605,147.718 98.5,148C 101.657,152.584 105.49,153.418 110,150.5C 111.766,151.502 113.433,151.168 115,149.5C 116.395,150.43 117.895,150.43 119.5,149.5C 121.89,149.74 123.89,150.74 125.5,152.5C 126.72,151.289 127.887,151.289 129,152.5C 130.044,151.377 130.71,150.044 131,148.5C 131.333,149.5 131.667,150.5 132,151.5C 132.71,150.027 133.876,149.36 135.5,149.5C 135.5,150.5 135.5,151.5 135.5,152.5C 136.833,152.5 138.167,152.5 139.5,152.5C 141.103,152.312 142.437,152.812 143.5,154C 141.167,154.333 138.833,154.667 136.5,155C 136.043,155.414 135.709,155.914 135.5,156.5C 140.156,157.569 144.822,157.569 149.5,156.5C 149.806,153.615 149.473,150.948 148.5,148.5C 147.475,148.103 147.308,147.437 148,146.5C 149.81,143.982 151.643,143.982 153.5,146.5 Z"/></g>
<g><path style="opacity:1" fill="#04153d" d="M 64.5,150.5 C 61.4486,150.364 58.4486,150.698 55.5,151.5C 53.8295,151.332 52.4961,150.665 51.5,149.5C 55.9606,148.768 60.294,149.101 64.5,150.5 Z"/></g>
<g><path style="opacity:1" fill="#062870" d="M 227.5,144.5 C 227.414,145.496 227.748,146.329 228.5,147C 231.785,148.779 234.118,151.279 235.5,154.5C 236.833,154.5 238.167,154.5 239.5,154.5C 239.675,152.379 239.341,150.379 238.5,148.5C 238.783,147.711 239.283,147.044 240,146.5C 242.623,146.877 245.123,146.877 247.5,146.5C 247.152,149.019 245.819,150.853 243.5,152C 246.119,151.917 248.786,151.75 251.5,151.5C 250.537,146.263 252.037,144.929 256,147.5C 257.677,146.392 259.177,146.392 260.5,147.5C 258.279,149.33 258.112,151.33 260,153.5C 261.438,152.1 262.271,150.433 262.5,148.5C 263.675,148.281 264.675,148.614 265.5,149.5C 264.355,150.891 264.355,152.224 265.5,153.5C 267.149,154.648 268.649,155.981 270,157.5C 270.399,157.272 270.565,156.938 270.5,156.5C 273.179,156.525 274.512,157.858 274.5,160.5C 266.5,160.5 258.5,160.5 250.5,160.5C 250.586,159.504 250.252,158.671 249.5,158C 251.824,156.838 254.158,155.671 256.5,154.5C 255.652,153.009 254.319,152.342 252.5,152.5C 251.5,152.667 250.5,152.833 249.5,153C 246.717,156.017 243.717,158.517 240.5,160.5C 217.5,160.5 194.5,160.5 171.5,160.5C 171.483,158.435 171.15,156.435 170.5,154.5C 169.993,153.141 168.993,152.141 167.5,151.5C 168.098,150.205 168.598,148.872 169,147.5C 169.741,148.641 170.575,148.641 171.5,147.5C 173.116,148.115 174.449,149.115 175.5,150.5C 178.643,151.128 181.643,150.461 184.5,148.5C 186.514,148.437 188.181,149.103 189.5,150.5C 190.694,153.018 191.86,153.018 193,150.5C 194.307,151.772 195.807,152.772 197.5,153.5C 196.5,154.167 195.5,154.833 194.5,155.5C 194.833,155.833 195.167,156.167 195.5,156.5C 198.644,155.986 201.644,155.153 204.5,154C 202.256,153.95 200.589,153.117 199.5,151.5C 204.095,149.093 209.095,147.76 214.5,147.5C 214.291,146.914 213.957,146.414 213.5,146C 216.789,145.254 219.289,146.42 221,149.5C 221.813,147.564 222.313,145.564 222.5,143.5C 224.415,143.216 226.081,143.549 227.5,144.5 Z"/></g>
<g><path style="opacity:1" fill="#0a102c" d="M 199.5,151.5 C 200.589,153.117 202.256,153.95 204.5,154C 201.644,155.153 198.644,155.986 195.5,156.5C 195.167,156.167 194.833,155.833 194.5,155.5C 195.5,154.833 196.5,154.167 197.5,153.5C 195.807,152.772 194.307,151.772 193,150.5C 191.86,153.018 190.694,153.018 189.5,150.5C 191.272,148.704 193.272,147.037 195.5,145.5C 196.646,146.145 197.646,146.978 198.5,148C 193.319,150.031 193.653,151.197 199.5,151.5 Z"/></g>
<g><path style="opacity:1" fill="#081235" d="M 418.5,154.5 C 421.073,154.148 423.406,154.648 425.5,156C 422.419,156.555 420.086,158.055 418.5,160.5C 417.5,160.5 416.5,160.5 415.5,160.5C 416.546,158.534 417.546,156.534 418.5,154.5 Z"/></g>
<g><path style="opacity:1" fill="#061f59" d="M 498.5,147.5 C 497.232,149.629 495.398,151.962 493,154.5C 492.586,154.043 492.086,153.709 491.5,153.5C 489.975,156.353 487.809,157.353 485,156.5C 483.566,158.136 481.733,159.136 479.5,159.5C 478.571,158.311 478.238,156.978 478.5,155.5C 480.167,155.5 481.833,155.5 483.5,155.5C 483.5,153.833 483.5,152.167 483.5,150.5C 486.044,150.104 488.211,150.771 490,152.5C 491.768,151.318 491.935,149.985 490.5,148.5C 492.801,145.01 495.468,144.677 498.5,147.5 Z"/></g>
<g><path style="opacity:1" fill="#091231" d="M 567.5,145.5 C 565.432,146.375 563.432,147.541 561.5,149C 564.683,151.175 565.683,154.009 564.5,157.5C 562.43,157.551 560.597,156.885 559,155.5C 557.437,156.102 557.604,156.935 559.5,158C 557.803,158.384 556.137,158.218 554.5,157.5C 554.584,154.305 555.917,153.139 558.5,154C 557.429,153.148 556.429,152.315 555.5,151.5C 556.791,151.737 557.791,151.404 558.5,150.5C 559.289,150.217 559.956,149.717 560.5,149C 559.663,147.989 559.33,146.822 559.5,145.5C 558.022,145.762 556.689,145.429 555.5,144.5C 558.813,142.906 560.98,143.906 562,147.5C 563.337,145.996 565.004,144.996 567,144.5C 567.399,144.728 567.565,145.062 567.5,145.5 Z"/></g>
<g><path style="opacity:1" fill="#091844" d="M 148.5,148.5 C 149.473,150.948 149.806,153.615 149.5,156.5C 144.822,157.569 140.156,157.569 135.5,156.5C 135.709,155.914 136.043,155.414 136.5,155C 138.833,154.667 141.167,154.333 143.5,154C 142.437,152.812 141.103,152.312 139.5,152.5C 139.918,151.778 140.584,151.278 141.5,151C 138.972,150.002 138.972,149.169 141.5,148.5C 144.41,148.544 145.41,149.71 144.5,152C 148.107,154.301 149.441,153.134 148.5,148.5 Z"/></g>
<g><path style="opacity:1" fill="#161a24" d="M 289.5,152.5 C 289.047,153.458 288.381,154.292 287.5,155C 290.531,155.495 293.531,155.329 296.5,154.5C 296.5,153.5 296.5,152.5 296.5,151.5C 297.833,151.5 299.167,151.5 300.5,151.5C 298.833,153.5 297.167,155.5 295.5,157.5C 291.336,157.044 287.336,156.378 283.5,155.5C 284.866,153.729 286.366,152.062 288,150.5C 288.278,151.416 288.778,152.082 289.5,152.5 Z"/></g>
<g><path style="opacity:1" fill="#c1c0c0" d="M 303.5,150.5 C 303.5,150.833 303.5,151.167 303.5,151.5C 304.833,153.167 304.833,154.833 303.5,156.5C 300.873,157.092 298.206,157.425 295.5,157.5C 297.167,155.5 298.833,153.5 300.5,151.5C 301.391,150.89 302.391,150.557 303.5,150.5 Z"/></g>
<g><path style="opacity:1" fill="#071c50" d="M 43.5,148.5 C 41.0587,149.557 38.7254,150.89 36.5,152.5C 35.0333,152.277 33.5333,151.944 32,151.5C 31.6322,152.91 30.7989,153.91 29.5,154.5C 28.3914,153.41 27.3914,153.41 26.5,154.5C 28.4613,155.848 28.6279,157.181 27,158.5C 25.1667,155.667 23.6667,155.833 22.5,159C 24.0581,159.21 25.3915,159.71 26.5,160.5C 23.8333,160.5 21.1667,160.5 18.5,160.5C 18.9628,157.779 19.6295,155.112 20.5,152.5C 21.8068,153.153 23.1401,153.82 24.5,154.5C 26.4492,152.923 28.4492,151.423 30.5,150C 33.5071,150.703 36.5071,150.369 39.5,149C 40.8333,148.333 40.8333,147.667 39.5,147C 41.3524,146.227 42.6857,146.727 43.5,148.5 Z"/></g>
<g><path style="opacity:1" fill="#061f58" d="M 170.5,154.5 C 171.15,156.435 171.483,158.435 171.5,160.5C 163.5,160.5 155.5,160.5 147.5,160.5C 147.196,159.85 146.863,159.183 146.5,158.5C 151.128,157.338 155.794,156.338 160.5,155.5C 158.021,154.327 155.521,154.327 153,155.5C 151.941,155.37 151.108,154.87 150.5,154C 152.577,153.808 154.577,153.308 156.5,152.5C 155.128,150.38 155.795,149.38 158.5,149.5C 158.281,150.675 158.614,151.675 159.5,152.5C 159.437,151.34 159.77,150.006 160.5,148.5C 158.031,147.832 155.698,147.165 153.5,146.5C 155.792,146.756 157.959,146.423 160,145.5C 161.646,147.569 163.813,148.902 166.5,149.5C 165.146,153.09 166.479,154.756 170.5,154.5 Z"/></g>
<g><path style="opacity:1" fill="#081948" d="M 601.5,152.5 C 602.028,153.847 602.195,155.181 602,156.5C 599.435,157.47 597.268,158.804 595.5,160.5C 593.833,160.5 592.167,160.5 590.5,160.5C 592.438,157.557 594.771,154.89 597.5,152.5C 599.035,151.646 600.368,151.646 601.5,152.5 Z"/></g>
<g><path style="opacity:1" fill="#081338" d="M 621.5,156.5 C 616.399,159.892 612.399,158.892 609.5,153.5C 608.817,153.863 608.15,154.196 607.5,154.5C 608.47,152.363 609.97,150.696 612,149.5C 612.5,149.667 613,149.833 613.5,150C 612.672,150.915 611.672,151.581 610.5,152C 612.333,153.833 614.167,155.667 616,157.5C 616.483,156.552 616.649,155.552 616.5,154.5C 618.514,154.392 620.18,155.058 621.5,156.5 Z"/></g>
<g><path style="opacity:1" fill="#071f57" d="M 250.5,160.5 C 247.167,160.5 243.833,160.5 240.5,160.5C 243.717,158.517 246.717,156.017 249.5,153C 250.5,152.833 251.5,152.667 252.5,152.5C 254.319,152.342 255.652,153.009 256.5,154.5C 254.158,155.671 251.824,156.838 249.5,158C 250.252,158.671 250.586,159.504 250.5,160.5 Z"/></g>
<g><path style="opacity:1" fill="#052c79" d="M 473.5,145.5 C 473.414,146.496 473.748,147.329 474.5,148C 472.19,148.497 469.857,148.663 467.5,148.5C 467.5,149.5 467.5,150.5 467.5,151.5C 471.772,151.348 475.772,150.348 479.5,148.5C 478.167,148.167 476.833,147.833 475.5,147.5C 478.068,146.132 480.401,146.466 482.5,148.5C 483.182,147.757 483.849,147.091 484.5,146.5C 486.886,146.259 488.886,146.925 490.5,148.5C 491.935,149.985 491.768,151.318 490,152.5C 488.211,150.771 486.044,150.104 483.5,150.5C 483.5,152.167 483.5,153.833 483.5,155.5C 481.833,155.5 480.167,155.5 478.5,155.5C 478.238,156.978 478.571,158.311 479.5,159.5C 481.733,159.136 483.566,158.136 485,156.5C 487.809,157.353 489.975,156.353 491.5,153.5C 492.086,153.709 492.586,154.043 493,154.5C 495.398,151.962 497.232,149.629 498.5,147.5C 503.586,147.981 503.586,149.148 498.5,151C 499.044,151.717 499.711,152.217 500.5,152.5C 499.282,153.161 497.949,153.828 496.5,154.5C 498.959,155.643 501.293,155.31 503.5,153.5C 504.216,154.311 505.05,154.978 506,155.5C 510.726,155.094 514.893,153.428 518.5,150.5C 521.508,156.645 525.841,157.978 531.5,154.5C 534.488,154.439 537.321,155.105 540,156.5C 544.126,155.671 548.293,155.337 552.5,155.5C 552.833,156.5 553.5,157.167 554.5,157.5C 556.137,158.218 557.803,158.384 559.5,158C 557.604,156.935 557.437,156.102 559,155.5C 560.597,156.885 562.43,157.551 564.5,157.5C 566.048,157.821 566.715,158.821 566.5,160.5C 556.833,160.5 547.167,160.5 537.5,160.5C 537.315,158.11 535.982,157.11 533.5,157.5C 530.761,157.547 530.095,158.547 531.5,160.5C 505.167,160.5 478.833,160.5 452.5,160.5C 452.306,158.088 450.973,157.088 448.5,157.5C 448.351,156.448 448.517,155.448 449,154.5C 451.634,155.692 452.468,155.026 451.5,152.5C 452.129,150.003 453.796,148.67 456.5,148.5C 462.111,147.082 467.778,146.082 473.5,145.5 Z"/></g>
<g><path style="opacity:1" fill="#062c7b" d="M 20.5,152.5 C 19.6295,155.112 18.9628,157.779 18.5,160.5C 12.1667,160.5 5.83333,160.5 -0.5,160.5C -0.5,157.167 -0.5,153.833 -0.5,150.5C 5.05294,149.804 10.5529,149.47 16,149.5C 17.8778,150.053 19.3778,151.053 20.5,152.5 Z"/></g>
<g><path style="opacity:1" fill="#0a1233" d="M 537.5,160.5 C 535.5,160.5 533.5,160.5 531.5,160.5C 530.095,158.547 530.761,157.547 533.5,157.5C 535.982,157.11 537.315,158.11 537.5,160.5 Z"/></g>
<g><path style="opacity:1" fill="#072464" d="M 567.5,145.5 C 568.906,145.973 569.573,146.973 569.5,148.5C 568.37,150.315 567.704,152.315 567.5,154.5C 570.745,153.155 574.078,152.322 577.5,152C 578.328,152.915 579.328,153.581 580.5,154C 579.289,155.113 579.289,156.28 580.5,157.5C 579.376,158.859 578.042,159.859 576.5,160.5C 573.167,160.5 569.833,160.5 566.5,160.5C 566.715,158.821 566.048,157.821 564.5,157.5C 565.683,154.009 564.683,151.175 561.5,149C 563.432,147.541 565.432,146.375 567.5,145.5 Z"/></g>
<g><path style="opacity:1" fill="#042d7a" d="M 569.5,148.5 C 573.538,148.958 577.538,149.624 581.5,150.5C 580.405,155.386 582.072,157.052 586.5,155.5C 587.23,153.994 587.563,152.66 587.5,151.5C 590.233,153.75 593.233,154.083 596.5,152.5C 596.833,152.5 597.167,152.5 597.5,152.5C 594.771,154.89 592.438,157.557 590.5,160.5C 585.833,160.5 581.167,160.5 576.5,160.5C 578.042,159.859 579.376,158.859 580.5,157.5C 579.289,156.28 579.289,155.113 580.5,154C 579.328,153.581 578.328,152.915 577.5,152C 574.078,152.322 570.745,153.155 567.5,154.5C 567.704,152.315 568.37,150.315 569.5,148.5 Z"/></g>
<g><path style="opacity:1" fill="#052a77" d="M 601.5,152.5 C 603.858,152.253 605.858,152.919 607.5,154.5C 608.15,154.196 608.817,153.863 609.5,153.5C 612.399,158.892 616.399,159.892 621.5,156.5C 625.884,155.576 629.218,156.909 631.5,160.5C 619.5,160.5 607.5,160.5 595.5,160.5C 597.268,158.804 599.435,157.47 602,156.5C 602.195,155.181 602.028,153.847 601.5,152.5 Z"/></g>
<g><path style="opacity:1" fill="#0a133d" d="M 53.5,160.5 C 50.5,160.5 47.5,160.5 44.5,160.5C 45.3915,158.286 47.0582,157.286 49.5,157.5C 51.9818,157.11 53.3152,158.11 53.5,160.5 Z"/></g>
<g><path style="opacity:1" fill="#0a0c25" d="M 91.5,160.5 C 89.1667,160.5 86.8333,160.5 84.5,160.5C 85.305,158.787 86.305,157.121 87.5,155.5C 88.3857,156.325 88.719,157.325 88.5,158.5C 90.1788,158.285 91.1788,158.952 91.5,160.5 Z"/></g>
<g><path style="opacity:1" fill="#090f27" d="M 111.5,160.5 C 109.833,160.5 108.167,160.5 106.5,160.5C 106.791,159.351 107.624,158.684 109,158.5C 110.376,158.684 111.209,159.351 111.5,160.5 Z"/></g>
<g><path style="opacity:1" fill="#042c70" d="M 377.5,141.5 C 377.5,142.5 377.5,143.5 377.5,144.5C 379.75,144.181 381.75,144.681 383.5,146C 382.692,146.308 382.025,146.808 381.5,147.5C 383.007,148.739 384.174,148.405 385,146.5C 385.804,147.804 386.971,148.471 388.5,148.5C 390.597,147.451 392.597,146.451 394.5,145.5C 398.741,144.75 402.074,146.083 404.5,149.5C 405.298,149.043 405.631,148.376 405.5,147.5C 407.765,149.229 409.765,151.229 411.5,153.5C 413.873,154.195 416.206,154.528 418.5,154.5C 417.546,156.534 416.546,158.534 415.5,160.5C 368.833,160.5 322.167,160.5 275.5,160.5C 275.694,155.869 277.527,155.536 281,159.5C 281.684,158.216 281.517,157.049 280.5,156C 281.448,155.517 282.448,155.351 283.5,155.5C 287.336,156.378 291.336,157.044 295.5,157.5C 298.206,157.425 300.873,157.092 303.5,156.5C 305.604,156.799 307.604,156.466 309.5,155.5C 307.736,153.722 305.736,152.389 303.5,151.5C 303.5,151.167 303.5,150.833 303.5,150.5C 303.833,149.833 304.167,149.167 304.5,148.5C 306.861,146.691 309.528,146.691 312.5,148.5C 313.216,146.518 314.383,144.851 316,143.5C 320.085,147.523 323.585,147.189 326.5,142.5C 326.5,143.833 326.5,145.167 326.5,146.5C 326.72,149.4 326.054,152.067 324.5,154.5C 322.775,152.252 321.442,152.752 320.5,156C 321.536,157.617 322.703,157.784 324,156.5C 326.795,157.94 329.795,158.607 333,158.5C 341.823,157.842 350.657,157.342 359.5,157C 359.833,156.667 360.167,156.333 360.5,156C 359.244,155.583 358.577,154.75 358.5,153.5C 359.167,153.167 359.833,152.833 360.5,152.5C 361.78,153.931 363.447,154.598 365.5,154.5C 365.351,153.448 365.517,152.448 366,151.5C 368.045,153.043 369.545,152.71 370.5,150.5C 371.145,147.453 370.145,145.287 367.5,144C 367.728,143.601 368.062,143.435 368.5,143.5C 371.564,143.072 374.564,142.406 377.5,141.5 Z"/></g>
<g><path style="opacity:1" fill="#052a76" d="M 352.5,150.5 C 353.833,150.5 355.167,150.5 356.5,150.5C 358.048,150.821 358.715,151.821 358.5,153.5C 355.211,155.189 353.211,154.189 352.5,150.5 Z"/></g>
<g><path style="opacity:1" fill="#272626" d="M 343.5,145.5 C 343.213,149.215 344.88,151.548 348.5,152.5C 349.167,152.833 349.833,153.167 350.5,153.5C 350.953,154.458 351.619,155.292 352.5,156C 348.167,156.667 343.833,156.667 339.5,156C 338.62,154.644 338.286,153.144 338.5,151.5C 338.5,151.167 338.5,150.833 338.5,150.5C 339.167,150.5 339.5,150.167 339.5,149.5C 339.833,149.5 340.167,149.5 340.5,149.5C 342.048,149.179 342.715,148.179 342.5,146.5C 342.5,145.833 342.833,145.5 343.5,145.5 Z"/></g>
<g><path style="opacity:1" fill="#081a51" d="M 338.5,150.5 C 338.5,150.833 338.5,151.167 338.5,151.5C 337.448,151.351 336.448,151.517 335.5,152C 335.833,152.333 336.167,152.667 336.5,153C 333.888,153.741 332.222,152.741 331.5,150C 333.941,148.309 336.274,148.475 338.5,150.5 Z"/></g>
<g><path style="opacity:1" fill="#a4a2a0" d="M 327.5,146.5 C 328.5,146.5 329.5,146.5 330.5,146.5C 330.5,147.833 330.5,149.167 330.5,150.5C 329.5,150.5 328.5,150.5 327.5,150.5C 327.5,149.167 327.5,147.833 327.5,146.5 Z"/></g>
<g><path style="opacity:1" fill="#040512" d="M 360.5,152.5 C 359.833,152.833 359.167,153.167 358.5,153.5C 358.715,151.821 358.048,150.821 356.5,150.5C 355.71,149.206 354.71,148.039 353.5,147C 357.533,145.96 361.199,146.626 364.5,149C 363.264,150.388 361.931,151.554 360.5,152.5 Z"/></g>
<g><path style="opacity:1" fill="#deddda" d="M 342.5,146.5 C 342.715,148.179 342.048,149.179 340.5,149.5C 340.285,147.821 340.952,146.821 342.5,146.5 Z"/></g>
<g><path style="opacity:1" fill="#062976" d="M 639.5,157.5 C 639.5,158.5 639.5,159.5 639.5,160.5C 637.167,160.5 634.833,160.5 632.5,160.5C 632.5,159.833 632.5,159.167 632.5,158.5C 633.496,158.414 634.329,158.748 635,159.5C 637.167,158 637,156.833 634.5,156C 636.495,155.387 638.162,155.887 639.5,157.5 Z"/></g>
</svg>
